:SAMPLES-PER-SECOND 30
:FULLY-SPECIFIED
:DEGREES
813
root  12.6729 38.657 4.35264 0.143616 -86.9413 -6.5916
RightUpLeg  -11.6606 -7.85896 -2.37638
RightLeg  20.4135 3.26675 1.12234
RightFoot  -3.67976 -0.0714386 0.689665
RightToes  -9.31324e-010 0 -3.6325e-017
Spine  9.12396 -0.639346 9.16047
Spine1  6.5142 1.17935 -2.56737
HEad  -4.25605 10.3225 -8.31803
LeftShoulder1  -0.406777 4.56327 -32.2712
LeftArm  17.5998 -3.91704 -46.8883
LeftForeArm  19.0976 -19.3203 -5.88613
LeftHand  -0.0384796 6.6517 -0.231927
RightShoulder  -0.663421 -5.37886 28.6702
RightArm  19.4706 -8.93363 39.8478
RightForeArm  20.7478 7.47956 8.535
RightHand  0.0119137 3.93601 -0.112455
LeftUpLeg  -4.80527 0.52633 3.81224
LeftLeg  43.3628 0.496413 0.901202
LeftFoot  -10.9974 0.0815486 -5.35064
LeftToes  8.61288e-010 -5.99147e-011 2.1039e-011
814
root  13.9913 38.4275 4.58802 3.33383 -86.3038 -9.87952
RightUpLeg  -13.6741 -8.22643 -2.47562
RightLeg  20.2412 3.04968 1.09883
RightFoot  -1.66255 -0.113554 1.2082
RightToes  -9.31324e-010 0 -3.6325e-017
Spine  8.57508 -1.24544 8.12134
Spine1  6.90678 0.344244 -1.80788
HEad  -3.64695 11.5052 -8.1232
LeftShoulder1  -0.502682 4.81614 -32.1524
LeftArm  19.2067 -3.68537 -47.6602
LeftForeArm  16.2426 -22.9701 -4.29882
LeftHand  -0.0331939 6.07091 0.284831
RightShoulder  -0.731639 -5.5548 29.0127
RightArm  20.6692 -12.2691 37.9267
RightForeArm  19.827 8.58345 8.39766
RightHand  -0.00512195 3.56485 -0.318034
LeftUpLeg  -0.486374 -0.321585 4.54813
LeftLeg  43.5631 -0.935295 -0.559363
LeftFoot  -11.2882 0.070899 -6.08885
LeftToes  8.61288e-010 -5.99147e-011 2.1039e-011
815
root  15.414 38.1415 4.85031 3.33344 -85.2353 -9.63406
RightUpLeg  -16.16 -9.06966 -2.82849
RightLeg  20.0807 2.81609 1.09497
RightFoot  0.21796 -0.222069 2.1955
RightToes  -9.31324e-010 0 -3.6325e-017
Spine  8.34079 -1.95398 6.4579
Spine1  6.52324 -0.817672 -0.457125
HEad  -3.04629 12.4143 -7.17088
LeftShoulder1  -0.57914 5.00977 -32.3112
LeftArm  16.1753 -3.26077 -47.9444
LeftForeArm  18.8917 -26.44 -4.63087
LeftHand  -0.0255537 5.42475 1.74229
RightShoulder  -0.722189 -5.55151 28.6066
RightArm  20.3893 -15.5996 36.8254
RightForeArm  18.3733 9.56035 7.86581
RightHand  -0.0647622 3.59414 -1.09926
LeftUpLeg  3.02158 -2.15341 4.62471
LeftLeg  42.5689 -2.34712 -1.91161
LeftFoot  -10.9989 0.0863077 -6.6641
LeftToes  8.61288e-010 -5.99147e-011 2.1039e-011
816
root  16.8093 37.8879 5.09821 0.922668 -84.6651 -7.36415
RightUpLeg  -17.6179 -9.15342 -3.49747
RightLeg  18.8292 2.27644 0.849433
RightFoot  1.67803 -0.462211 4.15411
RightToes  -9.31324e-010 0 -3.6325e-017
Spine  7.93042 -2.24182 4.6347
Spine1  6.94893 -1.42327 0.274531
HEad  -1.94034 12.751 -6.15473
LeftShoulder1  -0.595247 5.06027 -32.0952
LeftArm  14.7604 -3.51767 -48.0827
LeftForeArm  21.2642 -29.7024 -5.28106
LeftHand  -0.0207424 5.89741 2.02351
RightShoulder  -0.747963 -5.63575 28.436
RightArm  18.6364 -18.597 36.1681
RightForeArm  16.8599 10.5554 6.9364
RightHand  -0.0136528 4.31819 -0.439945
LeftUpLeg  7.11555 -3.90591 4.07021
LeftLeg  39.701 -4.3016 -3.44105
LeftFoot  -12.1068 0.00628765 -8.55034
LeftToes  8.61288e-010 -5.99147e-011 2.1039e-011
817
root  18.3089 37.6923 5.36514 -1.92551 -83.1261 -4.06117
RightUpLeg  -18.7732 -10.008 -4.58576
RightLeg  16.0572 1.20515 0.665283
RightFoot  2.63064 -0.796426 6.61997
RightToes  -9.31324e-010 0 -3.6325e-017
Spine  7.57629 -2.513 2.26288
Spine1  6.68202 -2.30278 1.47818
HEad  -1.36092 12.7326 -5.91678
LeftShoulder1  -0.607126 5.09742 -31.9459
LeftArm  14.5617 -4.47023 -48.5352
LeftForeArm  24.1014 -31.9734 -5.66598
LeftHand  -0.0273875 5.6577 1.18646
RightShoulder  -0.772761 -5.71148 28.3726
RightArm  15.9152 -20.6624 35.9463
RightForeArm  15.6872 10.5884 6.10794
RightHand  0.00137463 4.23769 -0.261864
LeftUpLeg  9.32936 -6.18095 3.0339
LeftLeg  35.847 -6.41857 -4.59902
LeftFoot  -16.4781 -0.271674 -8.72064
LeftToes  8.61288e-010 -5.99147e-011 2.1039e-011
818
root  19.9036 37.5735 5.63587 -6.144 -82.1484 0.421173
RightUpLeg  -19.0299 -11.0488 -6.05437
RightLeg  11.8071 0.126772 0.932715
RightFoot  3.14451 -1.12337 9.01969
RightToes  -9.31324e-010 0 -3.6325e-017
Spine  7.89432 -2.22532 0.015825
Spine1  6.25996 -2.45763 1.84294
HEad  -1.68227 12.0475 -5.26418
LeftShoulder1  -0.549535 4.95998 -31.5877
LeftArm  13.9092 -5.50739 -49.2783
LeftForeArm  26.879 -33.8495 -5.9763
LeftHand  -0.0269413 5.76986 0.633858
RightShoulder  -0.803965 -5.81123 28.2206
RightArm  13.1311 -21.7655 36.6486
RightForeArm  14.8427 10.4119 5.337
RightHand  0.00672648 4.07586 -0.194545
LeftUpLeg  10.0106 -6.09943 2.03531
LeftLeg  31.014 -7.24744 -4.36108
LeftFoot  -22.2112 -0.335514 -4.90342
LeftToes  8.61288e-010 -5.99147e-011 2.1039e-011
819
root  21.6138 37.4754 5.89063 -16.0285 -81.8005 10.2489
RightUpLeg  -18.7116 -11.6603 -8.10461
RightLeg  6.98861 -0.837325 1.21319
RightFoot  1.10968 -1.09358 10.0069
RightToes  -9.31324e-010 0 -3.6325e-017
Spine  9.19275 -1.56577 -2.51872
Spine1  5.68099 -2.00078 1.49154
HEad  -1.50444 11.3062 -4.63
LeftShoulder1  -0.494198 4.8252 -31.2606
LeftArm  13.1669 -6.23345 -49.2144
LeftForeArm  28.4028 -35.7404 -6.37679
LeftHand  -0.0268118 4.57291 0.174096
RightShoulder  -0.830309 -5.86441 28.567
RightArm  10.9512 -20.7953 37.99
RightForeArm  15.2007 8.68944 4.95427
RightHand  0.0173135 4.50822 -0.0801074
LeftUpLeg  8.68466 -4.2975 0.0653391
LeftLeg  28.7913 -5.74318 -3.06009
LeftFoot  -24.349 0.0652713 -0.650905
LeftToes  8.61288e-010 -5.99147e-011 2.1039e-011
820
root  23.369 37.389 6.15058 -23.5897 -81.4882 18.0761
RightUpLeg  -18.5612 -11.9923 -9.60793
RightLeg  2.12964 -1.62859 1.09469
RightFoot  -2.74873 -0.814167 10.8142
RightToes  -9.31324e-010 0 -3.6325e-017
Spine  10.1055 -1.01897 -3.89584
Spine1  5.37687 -1.35236 0.700863
HEad  -1.07628 10.6226 -4.47372
LeftShoulder1  -0.531088 4.92733 -31.1618
LeftArm  12.4975 -6.43666 -48.413
LeftForeArm  27.9234 -36.8154 -6.69434
LeftHand  -0.0294968 4.60536 0.819664
RightShoulder  -0.799965 -5.77396 28.6049
RightArm  9.6044 -18.7599 40.3805
RightForeArm  15.9905 6.29355 4.79277
RightHand  -0.0679729 4.40734 -1.08991
LeftUpLeg  5.47295 -4.27421 -2.25764
LeftLeg  29.2856 -4.04961 -2.10523
LeftFoot  -25.0149 0.33605 1.5538
LeftToes  8.61288e-010 -5.99147e-011 2.1039e-011
821
root  24.8961 37.352 6.40366 -26.7628 -81.7228 21.8031
RightUpLeg  -18.0224 -11.8969 -10.1722
RightLeg  -2.25359 -2.75385 0.885441
RightFoot  -5.53723 -0.753226 13.9041
RightToes  -9.31324e-010 0 -3.6325e-017
Spine  9.77463 -0.455985 -2.66145
Spine1  5.24202 0.0343285 -2.44037
HEad  0.848259 10.1937 -5.81662
LeftShoulder1  -0.608903 5.12689 -31.3621
LeftArm  12.665 -6.14521 -46.9127
LeftForeArm  26.4433 -36.5983 -6.72577
LeftHand  -0.0331444 4.57318 1.35469
RightShoulder  -0.890365 -5.99453 29.1654
RightArm  8.72822 -17.1326 42.2206
RightForeArm  18.1583 5.4405 4.61992
RightHand  -0.0191986 4.21562 -0.505673
LeftUpLeg  1.83698 -4.15003 -3.50189
LeftLeg  30.4837 -2.97969 -1.54443
LeftFoot  -24.85 0.479793 2.80011
LeftToes  8.61288e-010 -5.99147e-011 2.1039e-011
822
root  26.3355 37.5488 6.6497 -34.2719 -83.1679 29.1472
RightUpLeg  -18.907 -12.0513 -9.94098
RightLeg  1.30317 -3.84721 1.01385
RightFoot  -4.31875 -0.812512 12.6984
RightToes  -9.31324e-010 0 -3.6325e-017
Spine  9.72269 0.534188 -0.0374406
Spine1  5.59892 2.11035 -6.18456
HEad  2.95017 11.1468 -7.32908
LeftShoulder1  -0.664018 5.2421 -32.0447
LeftArm  11.9482 -5.14212 -44.8465
LeftForeArm  24.7036 -34.982 -6.39607
LeftHand  -0.0417722 3.79263 1.67931
RightShoulder  -0.888494 -5.98005 29.2891
RightArm  8.72446 -15.2906 44.2243
RightForeArm  19.0667 5.33203 4.8387
RightHand  0.0142647 3.87559 -0.0854731
LeftUpLeg  -0.0960157 -3.32333 -4.45968
LeftLeg  29.9501 -1.59495 -0.642525
LeftFoot  -22.8916 0.483418 3.41136
LeftToes  8.61288e-010 -5.99147e-011 2.1039e-011
